# xmcd
#
# Track frame offsets:
#	150
#	15591
#	30711
#	42158
#	57570
#	69785
#	82495
#	101172
#	110069
#	118853
#	133588
#	147932
#	160971
#	173516
#	187738
#	200485
#	212877
#	229868
#	244399
#	258758
#	274027
#	285848
#	296871
#	311473
#	331599
#
# Disc length: 4651 seconds
#
# Revision: 0
# Processed by: cddbd v1.5.2PL0 Copyright (c) Steve Scherf et al.
# Submitted via: EasyCDDAExtractor 15.2.0.1
#
DISCID=71122919
DTITLE=Gusttavo Lima - Gusttavo Lima e Você
DYEAR=2011
DGENRE=
TTITLE0=Cor de Ouro
TTITLE1=Balada
TTITLE2=Demais da Conta
TTITLE3=Eu vou tentando te agarrar
TTITLE4=Arrasta
TTITLE5=Fora do comum
TTITLE6=Refém
TTITLE7=Tornado
TTITLE8=Calafrio
TTITLE9=Inventor dos amores
TTITLE10=60 segundos
TTITLE11=Quem tem sorte é sortero
TTITLE12=Chora, shora
TTITLE13=Se não quer me amar
TTITLE14=O amor não foi feito pra dividir
TTITLE15=Às vezes sim, às vezes não
TTITLE16=Rosas, versos e vinho
TTITLE17=Eu te achei (Acústico)
TTITLE18=Eu vou (Acústico)
TTITLE19=Pot-Pourri - Coração - Revelação
TTITLE20=Caso consumado
TTITLE21=Furacão
TTITLE22=Viva intensamente
TTITLE23=Pot-Pourri - Alô - Cuida de mim - Sem ar
TTITLE24=Chega mais pra cá
EXTD=
EXTT0=
EXTT1=
EXTT2=
EXTT3=
EXTT4=
EXTT5=
EXTT6=
EXTT7=
EXTT8=
EXTT9=
EXTT10=
EXTT11=
EXTT12=
EXTT13=
EXTT14=
EXTT15=
EXTT16=
EXTT17=
EXTT18=
EXTT19=
EXTT20=
EXTT21=
EXTT22=
EXTT23=
EXTT24=
PLAYORDER=
